<svg width="172" height="19" viewBox="0 0 172 19" fill="none" xmlns="http://www.w3.org/2000/svg">
  <path
    d="M106.321 0.340982C104.374 0.340982 97.211 0.340982 97.211 0.340982V18.6107C97.211 18.6107 102.478 18.6107 104.554 18.6107C107.055 18.6107 110.471 17.4308 110.471 13.5926C110.471 11.5544 109.442 10.3991 108.154 9.75362C110.314 9.26759 112.19 7.98509 112.19 5.19446C112.19 1.31219 108.842 0.340982 106.321 0.340982ZM103.83 15.049C102.959 15.049 101.376 15.049 101.335 15.049V10.8427L103.83 10.8699C105.137 10.8699 106.321 11.4662 106.321 12.959C106.321 14.4527 105.137 15.049 103.83 15.049ZM105.584 8.075C103.929 8.075 101.335 8.075 101.335 8.075V3.90094C101.335 3.90094 103.929 3.90094 105.584 3.90094C107.239 3.90094 107.987 4.80174 107.987 5.98839C107.987 7.1742 107.239 8.075 105.584 8.075ZM171.693 14.5494C171.693 16.3705 170.093 18.972 165.896 18.972C161.392 18.972 160.106 16.1967 159.979 14.7063L163.764 14.0252C164.025 15.418 165.26 15.6267 165.897 15.6283C166.538 15.6292 167.516 15.4604 167.516 14.5494C167.516 12.21 159.77 13.8624 159.77 7.84089C159.77 6.80353 160.21 3.15281 165.897 3.15281C170.861 3.15281 171.818 6.31835 172.002 7.80696L168.229 8.50504C168.064 7.11397 167.257 6.46679 165.897 6.46679C164.907 6.46679 163.94 6.87987 163.94 7.84089C163.938 10.612 171.693 8.68402 171.693 14.5494ZM0 5.7458C0 3.51585 1.3502 0 7.85954 0C14.7438 0 15.523 5.58379 15.523 5.58379L11.7149 6.65424C11.4105 4.84245 9.93472 3.90518 7.85868 3.90518C5.42746 3.90518 4.24582 4.61004 4.24582 5.82469C4.24582 9.5687 15.3777 6.52192 15.3777 13.6333C15.3777 16.703 12.9224 18.9567 8.25428 18.9567C3.95686 18.9567 2.06744 16.016 1.4921 14.3017L5.38962 13.2169C5.87466 14.2356 6.67618 15.0516 8.47702 15.0516C10.1377 15.0516 11.1301 14.3883 11.1301 13.5188C11.1318 10.3414 0 13.2296 0 5.7458ZM139.158 3.51585V5.00022C139.158 5.00022 137.542 3.15366 134.657 3.15366C131.772 3.15366 128.249 5.43451 128.249 11.0633C128.249 16.692 131.881 18.9729 134.856 18.9729C137.741 18.9729 139.357 17.1263 139.357 17.1263V18.6107H143.336V3.51585H139.158ZM135.84 15.0414C133.751 15.0414 132.427 13.574 132.427 11.0633C132.427 8.55254 133.751 7.08513 135.84 7.08513C137.93 7.08513 139.254 8.55254 139.254 11.0633C139.254 13.574 137.93 15.0414 135.84 15.0414ZM51.1657 0.340982V5.00022C51.1657 5.00022 49.5498 3.15366 46.6645 3.15366C43.7792 3.15366 40.2566 5.43451 40.2566 11.0633C40.2566 16.692 43.8884 18.9729 46.8631 18.9729C49.7484 18.9729 51.3644 17.1263 51.3644 17.1263V18.6107H55.3436V0.340982H51.1657ZM47.8487 15.0414C45.7589 15.0414 44.4353 13.574 44.4353 11.0633C44.4353 8.55254 45.7589 7.08513 47.8487 7.08513C49.9385 7.08513 51.262 8.55254 51.262 11.0633C51.262 13.574 49.9376 15.0414 47.8487 15.0414ZM24.504 18.2425C24.037 18.525 22.704 18.7913 21.7296 18.7913C18.4608 18.7913 16.6591 16.6564 16.6591 12.2092V0.340982H20.9066V3.51839H24.2804V7.09022H20.9066V12.3398C20.9066 14.0515 21.8087 15.0516 23.2329 15.0516C23.8925 15.0516 24.504 14.77 24.504 14.77V18.2425ZM127.221 10.5484C127.221 6.72549 124.257 3.15875 119.886 3.15875C114.909 3.15875 112.289 6.47781 112.289 11.0794C112.289 15.6436 115.146 19 120.078 19C124.327 19 126.7 16.2874 127.324 13.8819L123.376 12.7716C123.051 13.8921 122.017 15.0592 120.078 15.0592C118.758 15.0592 117.668 14.4731 117.042 13.4094L127.221 10.5484ZM116.476 10.6807C116.476 8.19884 117.742 6.78147 119.886 6.78147C121.354 6.78147 122.47 7.49737 122.984 8.85027L116.476 10.6807ZM32.5484 15.0414C33.9717 15.0414 34.8739 14.0422 34.8739 12.3313V3.51585H39.1214V12.3313C39.1214 16.6759 36.9456 18.9729 32.5493 18.9729C28.153 18.9729 25.9772 16.6759 25.9772 12.3313V3.51585H30.2247V12.3313C30.223 14.0422 31.1251 15.0414 32.5484 15.0414ZM79.5122 7.08513C78.0889 7.08513 77.1867 8.08433 77.1867 9.79518V18.6107H72.9392V9.79518C72.9392 5.45062 75.115 3.15366 79.5113 3.15366C83.9076 3.15366 86.0834 5.45062 86.0834 9.79518V18.6107H81.8359V9.79518C81.8367 8.08433 80.9355 7.08513 79.5122 7.08513ZM151.813 7.08513C150.39 7.08513 149.488 8.08433 149.488 9.79518V18.6107H145.24V9.79518C145.24 5.45062 147.416 3.15366 151.812 3.15366C156.209 3.15366 158.384 5.45062 158.384 9.79518V18.6107H154.137V9.79518C154.138 8.08433 153.237 7.08513 151.813 7.08513ZM71.6268 10.5484C71.6268 6.72549 68.6633 3.15875 64.2919 3.15875C59.3151 3.15875 56.6955 6.47781 56.6955 11.0794C56.6955 15.6436 59.5524 19 64.4845 19C68.7329 19 71.1057 16.2874 71.73 13.8819L67.7818 12.7716C67.4575 13.8921 66.423 15.0592 64.4845 15.0592C63.1644 15.0592 62.0739 14.4731 61.4479 13.4094L71.6268 10.5484ZM60.8811 10.6807C60.8811 8.19884 62.147 6.78147 64.291 6.78147C65.759 6.78147 66.8753 7.49737 67.3896 8.85112L60.8811 10.6807ZM95.46 18.2408C94.993 18.5233 93.66 18.7896 92.6856 18.7896C89.4168 18.7896 87.6151 16.6547 87.6151 12.2075V0.338437H91.8626V3.51585H95.2364V7.08768H91.8626V12.3373C91.8626 14.049 92.7648 15.049 94.1889 15.049C94.8485 15.049 95.46 14.7674 95.46 14.7674V18.2408Z"
    fill="#6523E3" />
</svg>