<svg width="55" height="55" viewBox="0 0 55 55" fill="none" xmlns="http://www.w3.org/2000/svg">
<g clip-path="url(#clip0_2264_61868)">
<path d="M27.4999 46.9999C37.6041 46.9999 45.7951 38.8089 45.7951 28.7048C45.7951 18.6007 37.6041 10.4097 27.4999 10.4097C17.3958 10.4097 9.20483 18.6007 9.20483 28.7048C9.20483 38.8089 17.3958 46.9999 27.4999 46.9999Z" fill="#BAF2FF"/>
<path d="M27.5138 10.4097C28.6881 10.4095 29.8597 10.5219 31.0126 10.7453C22.5823 12.3781 16.2162 19.7974 16.2162 28.7048C16.2162 37.6122 22.5823 45.0315 31.0126 46.6643C29.8597 46.8876 28.6881 47 27.5138 46.9999C17.4097 46.9999 9.21873 38.8089 9.21873 28.7048C9.21873 18.6007 17.4097 10.4097 27.5138 10.4097Z" fill="#9FE8FA"/>
<path d="M22.3871 24.4698L20.4125 27.2592C19.4612 28.603 19.7793 30.4635 21.1232 31.4148L21.6251 31.7701C22.0292 32.0562 22.3558 32.4385 22.5752 32.8824C22.7946 33.3264 22.8999 33.818 22.8817 34.3128L22.5924 42.1773C22.5797 42.5242 22.6638 42.8677 22.8354 43.1695C23.0069 43.4712 23.2591 43.7192 23.5637 43.8856C23.8682 44.0521 24.2131 44.1304 24.5597 44.1119C24.9063 44.0933 25.2408 43.9786 25.5259 43.7806L30.9354 40.0224C31.7191 39.478 32.402 38.8011 32.9533 38.0222L36.439 33.0984C37.1898 32.0378 36.9387 30.5694 35.878 29.8186L27.1674 23.6522C25.6216 22.5581 23.4814 22.9241 22.3871 24.4698ZM26.3825 12.1668C25.9589 11.6811 25.9 10.9975 26.1913 10.4568C23.0253 10.6806 20.0821 11.7097 17.5647 13.3408L15.0012 15.9044C14.3369 16.5687 13.9636 17.4697 13.9636 18.4091V21.2647C13.9636 22.0063 14.7969 22.4421 15.406 22.0192L17.5124 20.5568C18.1975 20.0812 19.0116 19.8263 19.8456 19.8262H22.5565C22.9963 19.8262 23.4317 19.7396 23.838 19.5713C24.2443 19.403 24.6135 19.1563 24.9245 18.8454L27.5995 16.1703C28.2835 15.4863 28.3209 14.3895 27.6851 13.6605L26.3825 12.1668Z" fill="#00BA66"/>
<path d="M39.6636 15.0403L38.6164 18.6853C38.2045 20.1191 38.3139 21.6525 38.9252 23.0133L40.0686 25.559C40.2604 25.986 40.5431 26.3659 40.897 26.6722C41.2509 26.9785 41.6674 27.2039 42.1175 27.3325C42.5675 27.4611 43.0402 27.4899 43.5026 27.4168C43.9649 27.3438 44.4057 27.1706 44.7941 26.9095L45.6431 26.3386C45.0652 21.8639 42.8702 17.8967 39.6636 15.0403Z" fill="#00BA66"/>
</g>
<rect x="0.25" y="0.25" width="54.5" height="54.5" rx="27.25" stroke="#E3E9ED" strokeWidth="0.5"/>
<defs>
<clipPath id="clip0_2264_61868">
<rect width="39" height="39" fill="white" transform="translate(8 8)"/>
</clipPath>
</defs>
</svg>
