<svg viewBox="0 0 20 20" fill="currentColor" xmlns="http://www.w3.org/2000/svg">
<path d="M2.5 17.0833V2.91666C2.5 2.425 2.78333 1.99166 3.2 1.79166L11.4083 10L3.2 18.2083C2.78333 18 2.5 17.575 2.5 17.0833V17.0833M14.0083 12.6L15.675 11.7667C16.7833 11.2083 16.7833 8.78333 15.675 8.225L14.0083 7.39166L12 9.4L14.0083 12.6V12.6M3.78333 1.21666C4.04167 1.09166 4.33333 1.04166 4.63333 1.1L12.7583 5.15833L10.5833 7.33333L3.78333 1.21666V1.21666M3.78333 18.7833L10.5833 11.975L12.7583 14.15L4.63333 18.2083C4.33333 18.2667 4.04167 18.2167 3.78333 18.0917V18.7833V18.7833" 
fill="white"/>
</svg>
